<svg width="51" height="51" viewBox="0 0 51 51" fill="none" xmlns="http://www.w3.org/2000/svg">
<g id="icon/places/child_care_24px">
<path id="icon/places/child_care_24px_2" fill-rule="evenodd" clip-rule="evenodd" d="M42.7762 17.3612C45.8575 18.275 48.2163 20.8888 48.7475 24.0975C48.8325 24.5438 48.875 25.0112 48.875 25.5C48.875 25.9888 48.8325 26.4562 48.7475 26.9025C48.2163 30.1325 45.8575 32.725 42.7975 33.6388C41.6925 35.9762 40.0987 38.08 38.1862 39.78C34.8075 42.7975 30.3662 44.625 25.5 44.625C20.6338 44.625 16.1925 42.7975 12.835 39.78C10.9225 38.08 9.32875 35.9975 8.22375 33.6388C5.1425 32.725 2.78375 30.1112 2.2525 26.9025C2.1675 26.4562 2.125 25.9888 2.125 25.5C2.125 25.0112 2.1675 24.5438 2.2525 24.0975C2.78375 20.8675 5.1425 18.275 8.22375 17.3612C9.32875 15.0025 10.9225 12.8987 12.8775 11.1775C16.235 8.18125 20.655 6.375 25.5 6.375C30.345 6.375 34.765 8.18125 38.1225 11.1775C40.0563 12.8987 41.65 14.9812 42.7762 17.3612ZM20.1875 19.6562C18.7205 19.6562 17.5312 20.8455 17.5312 22.3125C17.5312 23.7795 18.7205 24.9688 20.1875 24.9688C21.6545 24.9688 22.8438 23.7795 22.8438 22.3125C22.8438 20.8455 21.6545 19.6562 20.1875 19.6562ZM30.8125 19.6562C29.3455 19.6562 28.1562 20.8455 28.1562 22.3125C28.1562 23.7795 29.3455 24.9688 30.8125 24.9688C32.2795 24.9688 33.4688 23.7795 33.4688 22.3125C33.4688 20.8455 32.2795 19.6562 30.8125 19.6562ZM40.375 29.75C40.2363 29.75 40.1067 29.7319 39.9744 29.7134C39.9039 29.7036 39.8326 29.6936 39.7588 29.6863C39.3338 31.11 38.7175 32.4275 37.9313 33.6388C35.275 37.6975 30.7062 40.375 25.5 40.375C20.2938 40.375 15.725 37.6975 13.0688 33.6388C12.2825 32.4275 11.6663 31.11 11.2413 29.6863C11.1674 29.6936 11.0961 29.7036 11.0256 29.7134C10.8933 29.7319 10.7637 29.75 10.625 29.75C8.2875 29.75 6.375 27.8375 6.375 25.5C6.375 23.1625 8.2875 21.25 10.625 21.25C10.7636 21.25 10.8933 21.2681 11.0256 21.2866L11.0257 21.2866C11.0961 21.2964 11.1674 21.3064 11.2413 21.3138C11.6663 19.89 12.2825 18.5725 13.0688 17.3612C15.725 13.3025 20.2938 10.625 25.5 10.625C30.7062 10.625 35.275 13.3025 37.9313 17.3612C38.7175 18.5725 39.3338 19.89 39.7588 21.3138C39.8326 21.3064 39.9039 21.2964 39.9744 21.2866C40.1067 21.2681 40.2363 21.25 40.375 21.25C42.7125 21.25 44.625 23.1625 44.625 25.5C44.625 27.8375 42.7125 29.75 40.375 29.75ZM35.0625 29.75C33.4475 33.5112 29.7712 36.125 25.5 36.125C21.2288 36.125 17.5525 33.5112 15.9375 29.75H35.0625Z" fill="#169419"/>
</g>
</svg>
